<svg version="1.1" viewBox="0.0 0.0 300.0 300.0" fill="none" stroke="none" stroke-linecap="square" stroke-miterlimit="10" xmlns:xlink="http://www.w3.org/1999/xlink" xmlns="http://www.w3.org/2000/svg"><clipPath id="g8c785b83ef_0_70.0"><path d="m0 0l300.0 0l0 300.0l-300.0 0l0 -300.0z" clip-rule="nonzero"/></clipPath><g clip-path="url(#g8c785b83ef_0_70.0)"><path fill="#000000" fill-opacity="0.0" d="m0 0l300.0 0l0 300.0l-300.0 0z" fill-rule="evenodd"/><path fill="#ffffff" d="m273.50696 72.819084l0 0c-1.8310547E-4 1.8310547E-4 -4.8828125E-4 1.8310547E-4 -6.713867E-4 0l-40.732742 -40.733418c-9.1552734E-5 -8.773804E-5 -1.373291E-4 -2.0980835E-4 -1.373291E-4 -3.3950806E-4c0 -1.2588501E-4 4.5776367E-5 -2.4795532E-4 1.373291E-4 -3.3950806E-4l8.975159 -8.929937c1.9836426E-4 -1.8692017E-4 5.0354004E-4 -1.8692017E-4 6.866455E-4 0l40.732727 40.733414l0 0c1.8310547E-4 1.8692017E-4 1.8310547E-4 4.8828125E-4 0 6.752014E-4z" fill-rule="evenodd"/><path stroke="#ffffff" stroke-width="24.0" stroke-linejoin="round" stroke-linecap="butt" d="m273.50696 72.819084l0 0c-1.8310547E-4 1.8310547E-4 -4.8828125E-4 1.8310547E-4 -6.713867E-4 0l-40.732742 -40.733418c-9.1552734E-5 -8.773804E-5 -1.373291E-4 -2.0980835E-4 -1.373291E-4 -3.3950806E-4c0 -1.2588501E-4 4.5776367E-5 -2.4795532E-4 1.373291E-4 -3.3950806E-4l8.975159 -8.929937c1.9836426E-4 -1.8692017E-4 5.0354004E-4 -1.8692017E-4 6.866455E-4 0l40.732727 40.733414l0 0c1.8310547E-4 1.8692017E-4 1.8310547E-4 4.8828125E-4 0 6.752014E-4z" fill-rule="evenodd"/><path fill="#ffffff" d="m85.39022 260.88763l-47.492626 6.7592163l6.7592087 -47.492615z" fill-rule="evenodd"/><path stroke="#ffffff" stroke-width="24.0" stroke-linejoin="round" stroke-linecap="butt" d="m85.39022 260.88763l-47.492626 6.7592163l6.7592087 -47.492615z" fill-rule="evenodd"/><path fill="#ffffff" d="m44.86427 220.36646l0 0c0 0 0 0 -3.8146973E-6 0l-0.22270203 -0.22270203c0 0 0 0 0 0c0 0 0 0 0 0l191.44037 -191.44037c0 -1.9073486E-6 0 -1.9073486E-6 0 0l0.22271729 0.22270775l0 0c0 1.9073486E-6 0 1.9073486E-6 0 3.8146973E-6z" fill-rule="evenodd"/><path stroke="#ffffff" stroke-width="24.0" stroke-linejoin="round" stroke-linecap="butt" d="m44.86427 220.36646l0 0c0 0 0 0 -3.8146973E-6 0l-0.22270203 -0.22270203c0 0 0 0 0 0c0 0 0 0 0 0l191.44037 -191.44037c0 -1.9073486E-6 0 -1.9073486E-6 0 0l0.22271729 0.22270775l0 0c0 1.9073486E-6 0 1.9073486E-6 0 3.8146973E-6z" fill-rule="evenodd"/><path fill="#ffffff" d="m85.38982 260.892l0 0c0 0 0 0 0 0l-0.22270966 -0.22268677c0 0 0 0 0 0c0 -3.0517578E-5 0 -3.0517578E-5 0 -3.0517578E-5l191.44037 -191.44034c0 0 0 0 0 0l0.22268677 0.22270966l0 0c0 0 0 0 0 0z" fill-rule="evenodd"/><path stroke="#ffffff" stroke-width="24.0" stroke-linejoin="round" stroke-linecap="butt" d="m85.38982 260.892l0 0c0 0 0 0 0 0l-0.22270966 -0.22268677c0 0 0 0 0 0c0 -3.0517578E-5 0 -3.0517578E-5 0 -3.0517578E-5l191.44037 -191.44034c0 0 0 0 0 0l0.22268677 0.22270966l0 0c0 0 0 0 0 0z" fill-rule="evenodd"/><path fill="#ffffff" d="m65.127045 240.62924l0 0c0 0 0 0 -7.6293945E-6 0l-0.22270203 -0.22271729c0 0 0 0 0 0c0 0 0 0 0 0l191.44037 -191.44037c0 0 0 0 0 0l0.22271729 0.22270966l0 0c0 0 0 3.8146973E-6 0 3.8146973E-6z" fill-rule="evenodd"/><path stroke="#ffffff" stroke-width="24.0" stroke-linejoin="round" stroke-linecap="butt" d="m65.127045 240.62924l0 0c0 0 0 0 -7.6293945E-6 0l-0.22270203 -0.22271729c0 0 0 0 0 0c0 0 0 0 0 0l191.44037 -191.44037c0 0 0 0 0 0l0.22271729 0.22270966l0 0c0 0 0 3.8146973E-6 0 3.8146973E-6z" fill-rule="evenodd"/></g></svg>