<svg version="1.1" viewBox="0.0 0.0 140.0 140.0" fill="none" stroke="none" stroke-linecap="square" stroke-miterlimit="10" xmlns:xlink="http://www.w3.org/1999/xlink" xmlns="http://www.w3.org/2000/svg"><clipPath id="g906c7c6866_0_0.0"><path d="m0 0l140.0 0l0 140.0l-140.0 0l0 -140.0z" clip-rule="nonzero"/></clipPath><g clip-path="url(#g906c7c6866_0_0.0)"><path fill="#000000" fill-opacity="0.0" d="m0 0l140.0 0l0 140.0l-140.0 0z" fill-rule="evenodd"/><path fill="#073763" d="m5.371213 116.79499c4.6115484 -6.0218735 15.409011 -16.16623 24.089237 -25.062988c8.680227 -8.896767 18.390203 -18.932632 27.992128 -28.317585c9.601925 -9.384953 18.660976 -18.227036 29.61942 -27.992126c10.958443 -9.765093 27.820648 -25.221786 36.131233 -30.598427c8.310593 -5.3766403 11.454071 -3.1762905 13.732285 -1.6614175c2.2782135 1.514873 2.1714783 7.00175 -0.06298828 10.750656c-2.2344666 3.748907 -6.237091 5.554243 -13.343834 11.742783c-7.106735 6.1885376 -20.290901 17.251093 -29.296585 25.388453c-9.005692 8.137356 -17.522316 16.383198 -24.737534 23.435696c-7.215225 7.05249 -11.284344 11.501312 -18.55381 18.879265c-7.2694664 7.3779526 -18.119423 19.20385 -25.06299 25.38845c-6.943569 6.184601 -12.58399 10.199913 -16.598427 11.719154c-4.0144353 1.5192566 -6.8368325 -0.3250122 -7.4881887 -2.6036682c-0.651356 -2.278656 -1.031496 -5.0463715 3.5800524 -11.068245z" fill-rule="evenodd"/><path fill="#073763" d="m23.20717 5.3711085c6.0218735 4.611548 16.166231 15.40901 25.062994 24.08924c8.896763 8.680227 18.932632 18.3902 28.317581 27.992125c9.384956 9.601925 18.227036 18.660984 27.992126 29.619427c9.765091 10.958443 25.221794 27.82064 30.598427 36.131233c5.376648 8.310585 3.1762848 11.454063 1.6614227 13.732277c-1.5148773 2.2782135 -7.0017548 2.1714783 -10.750664 -0.06298828c-3.7489014 -2.2344666 -5.5542374 -6.237091 -11.742783 -13.343834c-6.1885376 -7.106735 -17.251091 -20.290901 -25.38845 -29.296585c-8.137352 -9.005692 -16.383202 -17.522308 -23.435692 -24.737534c-7.052494 -7.215225 -11.501312 -11.28434 -18.879265 -18.553806c-7.3779526 -7.2694664 -19.203852 -18.119423 -25.388453 -25.062992c-6.184602 -6.943569 -10.199913 -12.58399 -11.71916 -16.598427c-1.519248 -4.0144353 0.32502174 -6.8368325 2.603674 -7.4881887c2.2786531 -0.6513561 5.0463696 -1.031496 11.068241 3.5800526z" fill-rule="evenodd"/></g></svg>